REM DIRINDEX 1\2,1\3,1\4,1\5\6,1\5\7,1\8
REM DIRNAME folder01,folder02,folder03,folder04,folder05,folder06,folder07,folder08
TITLE ""
FILE "146 Åy146ÅzUnit8 (1657 grind_1668 prerequisite).mp3" MP3
  TRACK 01 AUDIO
    TITLE "0:"
    INDEX 01 00:00:00
  TRACK 02 AUDIO
    TITLE "2:cjc115_5684"
    INDEX 01 00:00:07
  TRACK 03 AUDIO
    TITLE "0:"
    INDEX 01 00:01:28
  TRACK 04 AUDIO
    TITLE "3:cjc115_5685"
    INDEX 01 00:01:36
  TRACK 05 AUDIO
    TITLE "0:"
    INDEX 01 00:03:23
  TRACK 06 AUDIO
    TITLE "4:cjc115_5686"
    INDEX 01 00:03:31
  TRACK 07 AUDIO
    TITLE "0:"
    INDEX 01 00:07:72
  TRACK 08 AUDIO
    TITLE "2:cjc115_5687"
    INDEX 01 00:09:06
  TRACK 09 AUDIO
    TITLE "0:"
    INDEX 01 00:10:27
  TRACK 10 AUDIO
    TITLE "3:cjc115_5688"
    INDEX 01 00:10:33
  TRACK 11 AUDIO
    TITLE "0:"
    INDEX 01 00:11:48
  TRACK 12 AUDIO
    TITLE "4:cjc115_5689"
    INDEX 01 00:11:58
  TRACK 13 AUDIO
    TITLE "0:"
    INDEX 01 00:15:66
  TRACK 14 AUDIO
    TITLE "2:cjc115_5690"
    INDEX 01 00:17:00
  TRACK 15 AUDIO
    TITLE "0:"
    INDEX 01 00:18:25
  TRACK 16 AUDIO
    TITLE "3:cjc115_5691"
    INDEX 01 00:18:27
  TRACK 17 AUDIO
    TITLE "0:"
    INDEX 01 00:19:65
  TRACK 18 AUDIO
    TITLE "4:cjc115_5692"
    INDEX 01 00:20:00
  TRACK 19 AUDIO
    TITLE "0:"
    INDEX 01 00:23:59
  TRACK 20 AUDIO
    TITLE "2:cjc115_5693"
    INDEX 01 00:24:67
  TRACK 21 AUDIO
    TITLE "0:"
    INDEX 01 00:26:18
  TRACK 22 AUDIO
    TITLE "3:cjc115_5694"
    INDEX 01 00:26:20
  TRACK 23 AUDIO
    TITLE "0:"
    INDEX 01 00:27:45
  TRACK 24 AUDIO
    TITLE "4:cjc115_5695"
    INDEX 01 00:27:55
  TRACK 25 AUDIO
    TITLE "0:"
    INDEX 01 00:32:15
  TRACK 26 AUDIO
    TITLE "2:cjc115_5696"
    INDEX 01 00:33:24
  TRACK 27 AUDIO
    TITLE "0:"
    INDEX 01 00:34:28
  TRACK 28 AUDIO
    TITLE "3:cjc115_5697"
    INDEX 01 00:34:42
  TRACK 29 AUDIO
    TITLE "0:"
    INDEX 01 00:36:70
  TRACK 30 AUDIO
    TITLE "4:cjc115_5698"
    INDEX 01 00:37:05
  TRACK 31 AUDIO
    TITLE "0:"
    INDEX 01 00:39:51
  TRACK 32 AUDIO
    TITLE "2:cjc115_5699"
    INDEX 01 00:40:58
  TRACK 33 AUDIO
    TITLE "0:"
    INDEX 01 00:42:00
  TRACK 34 AUDIO
    TITLE "3:cjc115_5700"
    INDEX 01 00:42:10
  TRACK 35 AUDIO
    TITLE "0:"
    INDEX 01 00:44:34
  TRACK 36 AUDIO
    TITLE "4:cjc115_5701"
    INDEX 01 00:44:38
  TRACK 37 AUDIO
    TITLE "0:"
    INDEX 01 00:48:69
  TRACK 38 AUDIO
    TITLE "2:cjc115_5702"
    INDEX 01 00:49:72
  TRACK 39 AUDIO
    TITLE "0:"
    INDEX 01 00:51:26
  TRACK 40 AUDIO
    TITLE "3:cjc115_5703"
    INDEX 01 00:51:32
  TRACK 41 AUDIO
    TITLE "0:"
    INDEX 01 00:53:04
  TRACK 42 AUDIO
    TITLE "4:cjc115_5704"
    INDEX 01 00:53:17
  TRACK 43 AUDIO
    TITLE "0:"
    INDEX 01 00:56:41
  TRACK 44 AUDIO
    TITLE "2:cjc115_5705"
    INDEX 01 00:57:52
  TRACK 45 AUDIO
    TITLE "0:"
    INDEX 01 00:59:14
  TRACK 46 AUDIO
    TITLE "3:cjc115_5706"
    INDEX 01 00:59:24
  TRACK 47 AUDIO
    TITLE "0:"
    INDEX 01 01:00:51
  TRACK 48 AUDIO
    TITLE "4:cjc115_5707"
    INDEX 01 01:00:57
  TRACK 49 AUDIO
    TITLE "0:"
    INDEX 01 01:04:45
  TRACK 50 AUDIO
    TITLE "2:cjc115_5708"
    INDEX 01 01:05:50
  TRACK 51 AUDIO
    TITLE "0:"
    INDEX 01 01:06:69
  TRACK 52 AUDIO
    TITLE "3:cjc115_5709"
    INDEX 01 01:07:00
  TRACK 53 AUDIO
    TITLE "0:"
    INDEX 01 01:09:22
  TRACK 54 AUDIO
    TITLE "4:cjc115_5710"
    INDEX 01 01:09:28
  TRACK 55 AUDIO
    TITLE "0:"
    INDEX 01 01:12:15
  TRACK 56 AUDIO
    TITLE "2:cjc115_5711"
    INDEX 01 01:13:24
  TRACK 57 AUDIO
    TITLE "0:"
    INDEX 01 01:14:65
  TRACK 58 AUDIO
    TITLE "3:cjc115_5712"
    INDEX 01 01:14:74
  TRACK 59 AUDIO
    TITLE "0:"
    INDEX 01 01:18:39
  TRACK 60 AUDIO
    TITLE "4:cjc115_5713"
    INDEX 01 01:18:47
  TRACK 61 AUDIO
    TITLE "0:"
    INDEX 01 01:24:02
  TRACK 62 AUDIO
    TITLE "2:cjc115_5714"
    INDEX 01 01:25:11
  TRACK 63 AUDIO
    TITLE "0:"
    INDEX 01 01:26:29
  TRACK 64 AUDIO
    TITLE "3:cjc115_5715"
    INDEX 01 01:26:38
  TRACK 65 AUDIO
    TITLE "0:"
    INDEX 01 01:27:69
  TRACK 66 AUDIO
    TITLE "4:cjc115_5716"
    INDEX 01 01:28:02
  TRACK 67 AUDIO
    TITLE "0:"
    INDEX 01 01:32:57
  TRACK 68 AUDIO
    TITLE "2:cjc115_5717"
    INDEX 01 01:33:68
  TRACK 69 AUDIO
    TITLE "0:"
    INDEX 01 01:35:26
  TRACK 70 AUDIO
    TITLE "3:cjc115_5718"
    INDEX 01 01:35:35
  TRACK 71 AUDIO
    TITLE "0:"
    INDEX 01 01:38:30
  TRACK 72 AUDIO
    TITLE "4:cjc115_5719"
    INDEX 01 01:38:42
  TRACK 73 AUDIO
    TITLE "0:"
    INDEX 01 01:42:31
